# xmcd
# 
# Track frame offsets:
#     187
#     25225
#     51427
#     74462
#     104962
#     131977
#     165685
#     194585
#     217377
# 
# Disc length: 3260
# 
# Revision: 1
# Processed by: cddbd v1.5.2PL0 Copyright (c) Steve Scherf et al.
# Submitted via: BonkEnc v1.0.8
# 
DISCID=9d0cba09
DTITLE=David T. Walker - ...From My Heart
DYEAR=1993
DGENRE=Fusion
TTITLE0=Thanks To You
TTITLE1=Memory And The Reality
TTITLE2=A Place For Us
TTITLE3=The Sidewalk Today
TTITLE4=Empathy System
TTITLE5=Sharing Walls
TTITLE6=In Love And Life 
TTITLE7=Speak Of Balance
TTITLE8=From My Heart
EXTD=
EXTT0=
EXTT1=
EXTT2=
EXTT3=
EXTT4=
EXTT5=
EXTT6=
EXTT7=
EXTT8=
PLAYORDER=
